<svg viewBox="0 0 27 28" xmlns="http://www.w3.org/2000/svg">
<path d="M6.75 2.75H16.875C17.4717 2.75 18.044 2.98705 18.466 3.40901C18.8879 3.83097 19.125 4.40326 19.125 5V7.25H16.875V5H6.75V23H16.875V20.75H19.125V23C19.125 23.5967 18.8879 24.169 18.466 24.591C18.044 25.0129 17.4717 25.25 16.875 25.25H6.75C6.15326 25.25 5.58097 25.0129 5.15901 24.591C4.73705 24.169 4.5 23.5967 4.5 23V5C4.5 4.40326 4.73705 3.83097 5.15901 3.40901C5.58097 2.98705 6.15326 2.75 6.75 2.75Z"/>
<path d="M18.1013 18.0387L19.6875 19.625L25.3125 14L19.6875 8.375L18.1013 9.96125L21.0037 12.875H10.125V15.125H21.0037L18.1013 18.0387Z"/>
</svg>
