<svg width="464" height="91" viewBox="0 0 464 91" fill="none" xmlns="http://www.w3.org/2000/svg">
<path d="M24.9036 73.0322C20.7661 69.6379 17.9328 65.5793 16.4034 60.8564C15.5681 58.2689 15.1586 55.4312 15.175 52.3433C15.1948 49.2918 15.6355 46.4329 16.4972 43.7666C17.4115 40.9304 19.0757 38.029 21.4897 35.0624C22.7855 33.4729 24.6076 31.662 26.9558 29.6297C29.1166 27.7612 31.113 26.1201 32.9449 24.7066C45.3835 15.1031 59.9368 10.4257 76.6049 10.6744C76.993 10.6805 77.6146 10.8033 78.4697 11.043C79.2459 11.2583 80.0517 11.2659 80.887 11.0657C81.035 11.0293 81.1732 10.9474 81.2768 10.8246C82.1977 9.78109 83.2846 8.97271 84.5377 8.39941C85.6724 7.88071 86.9962 7.61074 88.509 7.58951C93.3898 7.52581 96.5931 9.68099 98.1192 14.0551C98.3034 14.5738 98.3971 15.2244 98.4004 16.007C98.4037 16.5985 98.4333 17.1885 98.4892 17.777C98.504 17.9226 98.573 18.0591 98.6865 18.1637C99.3739 18.8007 100.111 19.3801 100.897 19.9018C101.452 20.2688 101.936 20.7269 102.347 21.2759C102.722 21.7794 103.138 22.2557 103.595 22.7046C104.204 23.2961 104.631 23.7602 104.878 24.0969C109.167 29.933 110.508 36.347 108.903 43.3389C107.137 51.0344 103.197 57.7517 97.0832 63.4908C87.9203 72.0933 77.0374 77.5958 64.4344 79.9982C61.1718 80.62 57.9092 80.9704 54.6466 81.0493C49.4666 81.1706 44.3261 80.7277 39.225 79.7206C33.8017 78.6468 29.0278 76.4174 24.9036 73.0322ZM75.6725 17.4175C74.7812 17.2143 73.7304 17.096 72.5201 17.0626C63.6105 16.8108 55.2271 18.2699 47.37 21.4397C46.6925 21.7157 45.9985 21.9508 45.2881 22.145C45.1401 22.1859 45.0661 22.327 45.1401 22.4225C45.2815 22.6136 45.5693 22.6849 46.0034 22.6364C51.9695 21.963 57.7448 22.923 63.3293 25.5165C67.9765 27.6702 71.7061 30.7596 74.5181 34.7849C77.9912 39.7565 79.6093 45.083 79.3725 50.7645C79.2508 53.6856 78.57 56.637 77.3301 59.6188C74.1629 67.2415 68.4912 73.0185 60.315 76.9497C60.2164 76.9952 60.1374 77.0437 60.0782 77.0953C59.8053 77.3258 59.9549 77.3744 60.5272 77.2409C61.5204 77.0104 62.5153 76.7753 63.5118 76.5356C70.6816 74.8097 77.215 71.9735 83.112 68.0272C86.0128 66.0858 88.5173 64.1248 90.6254 62.144C94.286 58.7072 97.144 54.773 99.1996 50.3413C100.607 47.311 101.369 44.3838 101.484 41.5598C101.737 35.1382 99.3114 29.4068 94.207 24.3654C93.8962 24.0605 93.393 24.0014 93.0132 24.2243C92.6152 24.4548 92.1745 24.6596 91.691 24.8386C91.5101 24.9053 91.1352 24.9644 90.5662 25.016C90.1683 25.0494 89.7999 25.1737 89.4612 25.3891C88.9119 25.7319 88.3758 25.7167 87.8529 25.3436C87.4253 25.0403 86.9583 24.9189 86.4518 24.9796C86.2677 25.0039 86.1114 24.9917 85.9832 24.9432C83.681 24.109 81.8704 22.738 80.5516 20.83C80.5253 20.7936 80.295 20.5236 79.8609 20.0201C79.509 19.6106 79.3889 19.1556 79.5008 18.6551C79.6521 17.9574 79.3429 17.6162 78.5733 17.6314C78.0833 17.6405 77.5965 17.6389 77.113 17.6268C76.7381 17.6177 76.2579 17.5479 75.6725 17.4175ZM71.7513 37.9934C64.7797 27.5822 49.2545 24.7658 37.0739 31.7025C24.8937 38.6387 20.6757 52.7028 27.6457 63.1169C34.6173 73.5281 50.1425 76.3446 62.3232 69.4078C74.5033 62.4716 78.7213 48.4076 71.7513 37.9934Z" fill="#003399"/>
<path d="M165.28 60.7958C161.587 57.9934 159.404 54.3581 158.731 49.89C158.324 47.1951 158.288 44.558 158.622 41.9788C158.993 39.0813 159.833 36.5951 161.144 34.5202C162.948 31.6682 165.483 29.5788 168.751 28.252C171.649 27.0781 174.872 26.6524 178.42 26.9748C186.271 27.6899 191.379 31.7984 193.743 39.3004C193.797 39.474 193.865 40.0361 193.946 40.9868C193.987 41.4828 194.149 41.9478 194.434 42.3818C194.561 42.5802 194.633 42.7683 194.651 42.946C194.891 45.9013 194.608 48.7699 193.804 51.5516C192.936 54.5772 191.539 57.0965 189.614 59.1094C185.704 63.2014 180.268 64.7783 173.308 63.84C170.058 63.4019 167.382 62.3871 165.28 60.7958ZM176.331 58.1111C182.237 58.1298 187.044 52.5002 187.071 45.5345C187.098 38.5688 182.332 32.9082 176.427 32.8897C170.521 32.871 165.714 38.5006 165.687 45.4663C165.66 52.432 170.426 58.0926 176.331 58.1111Z" fill="#003399"/>
<path d="M205.811 60.6221C202.981 58.324 201.2 55.4575 200.468 52.0227C199.781 48.8028 199.621 45.5623 199.987 42.3011C200.687 36.1218 203.928 31.4573 209.709 28.3077C210.952 27.6298 211.813 27.3322 212.293 27.4149C212.93 27.5265 213.522 27.4934 214.069 27.3157C214.919 27.0388 215.463 26.892 215.703 26.8755C220.169 26.5448 224.517 27.326 228.748 29.2191C229.1 29.3803 229.263 29.7461 229.134 30.0809L227.487 34.2411C227.297 34.7185 226.707 34.9603 226.185 34.7743C224.562 34.1998 223.098 33.7554 221.791 33.4413C218.157 32.5609 215.041 32.9701 212.442 34.6689C210.557 35.9048 209.135 37.7255 208.177 40.1311C207.291 42.3548 206.977 44.6571 207.235 47.0379C207.542 49.8734 208.283 52.1488 209.458 53.8641C210.973 56.0754 213.386 57.3857 216.7 57.7949C220.275 58.233 223.794 57.6564 227.256 56.0651C227.527 55.9411 227.853 56.0713 227.934 56.3317L229.209 60.4237C229.534 61.4777 229.107 62.1969 227.927 62.5813C223.258 64.09 218.611 64.5095 213.988 63.8399C210.57 63.3439 207.845 62.2713 205.811 60.6221Z" fill="#003399"/>
<path d="M309.796 30.1678C311.432 31.2425 312.718 32.592 313.653 34.2164C314.716 36.0557 315.563 37.9736 316.196 39.97C316.426 40.6933 316.61 41.5593 316.745 42.5678C316.998 44.3989 317 46.2155 316.752 48.0176C316.499 49.8073 316.074 51.5661 315.477 53.2938C313.954 57.6958 311.068 60.7937 306.819 62.5876C303.027 64.1872 298.92 64.5613 294.5 63.7098C287.394 62.3499 282.888 57.9376 280.981 50.4728C280.524 48.6831 280.483 45.9075 280.859 42.1462C281.383 36.9258 283.641 32.9268 287.632 30.1492C290.787 27.9585 294.364 26.826 298.365 26.7516C302.414 26.6813 306.225 27.8201 309.796 30.1678ZM298.567 58.1359C304.48 58.1546 309.301 52.5126 309.328 45.5346C309.355 38.5564 304.582 32.8834 298.664 32.8649C292.751 32.8462 287.93 38.4882 287.903 45.4662C287.876 52.4444 292.649 58.1174 298.567 58.1359Z" fill="#003399"/>
<path d="M364.137 58.0181C362.09 55.6332 360.856 52.8721 360.435 49.7349C360.164 47.693 360.178 45.2027 360.476 42.2639C361.159 35.601 364.311 31.0502 369.934 28.6115C373.876 26.9003 377.914 26.4167 382.05 27.1607C385.069 27.7022 387.734 28.9256 390.044 30.8311C392.064 32.501 393.642 34.6999 394.776 37.4279C397.303 43.4956 397.029 49.6006 393.956 55.7427C391.845 59.9504 388.186 62.602 382.979 63.6973C378.983 64.5405 375.229 64.3483 371.717 63.1207C368.68 62.0584 366.153 60.3576 364.137 58.0181ZM378.083 58.1606C384.009 58.1793 388.83 52.5311 388.857 45.5469C388.884 38.5625 384.104 32.8833 378.179 32.8648C372.253 32.8461 367.432 38.4943 367.405 45.4785C367.378 52.4629 372.158 58.1421 378.083 58.1606Z" fill="#003399"/>
<path d="M133.678 40.7016C133.683 41.5572 134.004 41.6709 134.641 41.0426C137.995 37.7442 141.053 34.5967 143.814 31.6C144.981 30.3352 145.968 29.3411 146.777 28.6178C147.473 27.9978 148.33 27.6299 149.347 27.5142C151.363 27.2869 153.302 27.3241 155.164 27.6258C155.551 27.6878 155.74 28.097 155.517 28.3946C154.445 29.8454 153.288 31.2011 152.045 32.4618C148.407 36.1653 144.746 39.8977 141.062 43.659C140.723 44.0062 140.75 44.5394 141.123 44.8494C147.189 49.8879 152.407 55.7593 156.778 62.4636C156.961 62.7426 156.764 63.1022 156.405 63.1332C154.014 63.3357 151.523 63.3109 148.933 63.0588C148.723 63.0402 148.533 62.9348 148.411 62.7736C144.407 57.5077 139.923 52.7792 134.96 48.588C134.074 47.844 133.635 48.0176 133.644 49.1088L133.766 62.631C133.766 62.9534 133.489 63.2076 133.15 63.2138L127.997 63.2696C127.346 63.2758 126.844 62.7612 126.919 62.1722C127.059 61.1265 127.093 60.0125 127.02 58.8304C126.916 57.0035 126.864 55.8957 126.864 55.5072C126.851 46.2609 126.864 37.0353 126.905 27.8304C126.905 27.601 127.109 27.415 127.366 27.415H132.905C133.312 27.415 133.644 27.7188 133.644 28.0908L133.678 40.7016Z" fill="#003399"/>
<path d="M265.59 40.2923L257.495 57.3733C257.251 57.8879 256.749 58.2537 256.152 58.3653C253.779 58.7911 252.091 58.5203 251.088 57.5531C250.929 57.4002 250.331 56.1705 249.291 53.8641C247.451 49.7804 245.562 45.6987 243.623 41.6191C242.674 39.6186 242.14 39.7116 242.023 41.8981L240.918 62.7115C240.911 62.8975 240.762 63.0463 240.558 63.0711C238.438 63.3274 236.443 63.3418 234.572 63.1145C234.178 63.0649 233.894 62.7487 233.914 62.3891C234.492 52.5353 235.195 42.8922 236.022 33.4599C236.104 32.5258 236.384 30.6265 236.863 27.7621C236.89 27.5823 237.053 27.4459 237.25 27.4459L242.491 27.4149C242.918 27.4087 243.318 27.6319 243.521 27.9915C247.485 34.9314 250.839 41.7597 253.583 48.4763C253.976 49.4353 254.394 49.4435 254.837 48.5011C257.621 42.5698 260.473 36.6653 263.393 30.7877C264.148 29.2708 264.557 28.473 264.62 28.3945C265.294 27.5926 266.329 27.3178 267.726 27.5699C268.512 27.7146 269.301 27.7146 270.092 27.5699C271.552 27.3013 272.264 27.7311 272.228 28.8595C272.196 29.7978 272.182 30.2814 272.187 30.3103C272.964 39.6227 273.633 48.9413 274.194 58.2661C274.284 59.7624 274.329 61.2256 274.329 62.6557C274.329 62.9657 274.051 63.2199 273.712 63.2199H268.268C267.888 63.2199 267.577 62.9471 267.556 62.5999C267.231 56.6066 266.946 50.6649 266.702 44.7749C266.652 43.6383 266.356 42.1482 265.814 40.3047C265.755 40.1063 265.68 40.1022 265.59 40.2923Z" fill="#003399"/>
<path d="M324.854 63.313C323.968 63.3296 323.525 62.9431 323.525 62.1536L323.484 28.0908C323.484 27.7188 323.817 27.415 324.223 27.415L352.435 27.4522C352.733 27.4522 352.977 27.6754 352.977 27.9482V62.631C352.977 62.9534 352.699 63.2076 352.347 63.2138L346.184 63.2634C345.913 63.2634 345.689 63.065 345.689 62.817V34.1606C345.689 33.8568 345.424 33.615 345.092 33.615L330.725 33.6522C330.468 33.6522 330.264 33.8444 330.264 34.08V62.6186C330.264 62.9534 329.959 63.22 329.586 63.2262L324.854 63.313Z" fill="#003399"/>
<path d="M426.92 30.7879C429.307 32.8091 430.509 35.4048 430.527 38.5751C430.563 43.4855 428.55 46.9617 424.486 49.0035C422.732 49.8839 420.439 50.4708 417.604 50.7643C415.317 50.9958 412.91 51.0557 410.384 50.9441C410.045 50.9255 409.76 51.1735 409.76 51.4835V62.7427C409.76 63.0093 409.53 63.2201 409.238 63.2201H403.977C403.414 63.2201 402.953 62.7923 402.966 62.2777C403.202 51.9527 403.186 41.8301 402.919 31.9101C402.892 30.8685 402.966 29.8538 403.143 28.8659C403.163 28.7171 403.251 28.5869 403.38 28.5001C404.564 27.6817 405.762 27.2994 406.973 27.3531C407.728 27.3903 408.119 27.4069 408.146 27.4027C411.907 27.349 415.668 27.4007 419.428 27.5577C419.645 27.5639 419.855 27.6321 420.038 27.7561C420.124 27.8181 420.213 27.8801 420.303 27.9421C420.393 28.0041 420.493 28.0434 420.601 28.0599C423.105 28.4237 425.212 29.333 426.92 30.7879ZM410.167 44.9177C413.62 45.36 416.782 44.9467 419.652 43.6777C422.409 42.4584 423.406 40.5508 422.642 37.9551C421.797 35.0907 419.593 33.6131 416.032 33.5221C414.395 33.4808 412.601 33.4601 410.648 33.4601C410.16 33.4601 409.76 33.8259 409.76 34.2723V44.4899C409.76 44.7007 409.936 44.8867 410.167 44.9177Z" fill="#003399"/>
<path d="M443.016 33.6522L433.043 33.615C432.731 33.6088 432.473 33.3856 432.48 33.1066L432.507 27.9978C432.514 27.6754 432.805 27.415 433.165 27.415H461.261C461.749 27.415 462.149 27.7684 462.136 28.2024L461.98 33.0756C461.973 33.3546 461.715 33.5778 461.403 33.5778L451.403 33.615C451.152 33.615 450.949 33.801 450.949 34.0242V62.6124C450.949 62.9224 450.671 63.1766 450.332 63.1828L444.108 63.2634C443.769 63.2696 443.491 63.0155 443.491 62.7055V34.0924C443.491 33.8506 443.28 33.6522 443.016 33.6522Z" fill="#003399"/>
</svg>
