<svg width="22" height="22" viewBox="0 0 22 22" fill="none" xmlns="http://www.w3.org/2000/svg">
<path d="M16.5 20.1667H5.49996C5.01373 20.1667 4.54741 19.9735 4.2036 19.6297C3.85978 19.2859 3.66663 18.8196 3.66663 18.3333V3.66666C3.66663 3.18043 3.85978 2.71411 4.2036 2.3703C4.54741 2.02648 5.01373 1.83333 5.49996 1.83333H11.9166C11.9248 1.83225 11.9332 1.83225 11.9414 1.83333H11.9469C11.9555 1.83603 11.9644 1.83787 11.9735 1.83883C12.0541 1.84433 12.1339 1.85991 12.2109 1.88558H12.2494C12.2663 1.89742 12.2822 1.9106 12.297 1.92499C12.3969 1.9694 12.4879 2.03151 12.5656 2.10833L18.0656 7.60833C18.1425 7.68605 18.2046 7.77704 18.249 7.87691C18.2569 7.89673 18.264 7.91692 18.27 7.93741L18.2792 7.96308C18.3049 8.03916 18.3195 8.11891 18.3241 8.19958C18.3249 8.20871 18.3271 8.21767 18.3305 8.22616V8.23166C18.332 8.23767 18.3329 8.24381 18.3333 8.24999V18.3333C18.3333 18.8196 18.1401 19.2859 17.7963 19.6297C17.4525 19.9735 16.9862 20.1667 16.5 20.1667ZM13.222 12.8333V17.4167H14.0836V15.5467H15.422V14.7785H14.0836V13.6042H15.5833V12.8333H13.222ZM9.83029 12.8333V17.4167H10.9358C11.1648 17.428 11.3934 17.3877 11.6047 17.2989C11.816 17.21 12.0047 17.0749 12.1568 16.9033C12.473 16.4999 12.6313 15.9951 12.6023 15.4834V14.7409C12.6236 14.2346 12.4608 13.7376 12.144 13.3421C11.846 13.0029 11.4106 12.8159 10.9587 12.8333H9.83029ZM6.41663 12.8333V17.4167H7.27829V15.8042H7.85213C8.23529 15.8253 8.60929 15.6832 8.88246 15.4137C9.14269 15.1225 9.27772 14.7405 9.25829 14.3504C9.2753 13.951 9.14036 13.5599 8.88063 13.2559C8.75374 13.1152 8.59727 13.0043 8.42246 12.9313C8.24764 12.8582 8.05882 12.8248 7.86954 12.8333H6.41663ZM11.9166 3.66666V8.24999H16.5L11.9166 3.66666ZM10.9505 16.6485H10.692V13.6042H11.0055C11.115 13.5978 11.2244 13.6189 11.3237 13.6657C11.423 13.7124 11.509 13.7833 11.5738 13.8719C11.7085 14.1497 11.7663 14.4586 11.7406 14.7666V15.5632C11.7608 15.8565 11.6975 16.1498 11.5573 16.4074C11.4833 16.4938 11.3894 16.5609 11.2836 16.6029C11.1779 16.6449 11.0636 16.6605 10.9505 16.6485ZM7.86954 15.0333H7.27738V13.6042H7.87779C7.95153 13.605 8.02386 13.6246 8.08799 13.6609C8.15212 13.6973 8.20596 13.7494 8.24446 13.8123C8.34346 13.9764 8.39113 14.1652 8.38196 14.3568C8.39345 14.5351 8.34611 14.7122 8.24721 14.861C8.20226 14.9174 8.14463 14.9624 8.07901 14.9924C8.01338 15.0223 7.94161 15.0363 7.86954 15.0333Z" fill="#222222"/>
</svg>
