<svg width="335" height="44" viewBox="0 0 335 44" fill="none" xmlns="http://www.w3.org/2000/svg">
<rect width="335" height="44" rx="8" fill="#0077FF"/>
<path fill-rule="evenodd" clip-rule="evenodd" d="M12.5465 12.5465C11 14.093 11 16.582 11 21.56V22.44C11 27.418 11 29.907 12.5465 31.4535C14.093 33 16.582 33 21.56 33H22.44C27.418 33 29.907 33 31.4535 31.4535C33 29.907 33 27.418 33 22.44V21.56C33 16.582 33 14.093 31.4535 12.5465C29.907 11 27.418 11 22.44 11H21.56C16.582 11 14.093 11 12.5465 12.5465ZM14.8 18.15C14.918 23.8728 17.9295 27.31 22.8932 27.31H23.1812V24.05C24.989 24.2332 26.3371 25.5682 26.8875 27.31H29.4939C28.7869 24.7044 26.9535 23.2604 25.8141 22.71C26.9526 22.0293 28.5641 20.3893 28.9436 18.15H26.5722C26.0747 19.971 24.5945 21.6233 23.1803 21.78V18.15H20.7711V24.5C19.305 24.1337 17.3924 22.3538 17.314 18.15H14.8Z" fill="white"/>
<path d="M104.26 21.628C104.868 21.8413 105.348 22.188 105.7 22.668C106.063 23.148 106.244 23.7187 106.244 24.38C106.244 24.9987 106.089 25.548 105.78 26.028C105.481 26.4973 105.049 26.86 104.484 27.116C103.929 27.372 103.279 27.5 102.532 27.5H98.148V16.22H102.196C102.932 16.22 103.577 16.3427 104.132 16.588C104.697 16.8333 105.129 17.18 105.428 17.628C105.737 18.076 105.892 18.5987 105.892 19.196C105.892 20.316 105.348 21.1 104.26 21.548V21.628ZM99.876 17.66V21.036H102.212C102.809 21.036 103.279 20.8867 103.62 20.588C103.961 20.2787 104.132 19.8627 104.132 19.34C104.132 18.828 103.956 18.4227 103.604 18.124C103.263 17.8147 102.799 17.66 102.212 17.66H99.876ZM102.548 26.06C103.135 26.06 103.604 25.9 103.956 25.58C104.308 25.2493 104.484 24.812 104.484 24.268C104.484 23.724 104.308 23.292 103.956 22.972C103.604 22.652 103.135 22.492 102.548 22.492H99.876V26.06H102.548ZM111.999 27.708C111.21 27.708 110.517 27.5267 109.919 27.164C109.322 26.8013 108.863 26.2893 108.543 25.628C108.223 24.956 108.063 24.1667 108.063 23.26C108.063 22.364 108.223 21.5853 108.543 20.924C108.863 20.252 109.322 19.74 109.919 19.388C110.517 19.0253 111.21 18.844 111.999 18.844C112.789 18.844 113.477 19.0253 114.063 19.388C114.661 19.74 115.119 20.252 115.439 20.924C115.759 21.5853 115.919 22.364 115.919 23.26C115.919 24.1667 115.759 24.956 115.439 25.628C115.119 26.2893 114.661 26.8013 114.063 27.164C113.477 27.5267 112.789 27.708 111.999 27.708ZM111.999 26.3C112.693 26.3 113.237 26.0333 113.631 25.5C114.026 24.956 114.223 24.2093 114.223 23.26C114.223 22.3213 114.026 21.5853 113.631 21.052C113.237 20.5187 112.693 20.252 111.999 20.252C111.306 20.252 110.762 20.5187 110.367 21.052C109.973 21.5853 109.775 22.3213 109.775 23.26C109.775 24.2093 109.973 24.956 110.367 25.5C110.762 26.0333 111.306 26.3 111.999 26.3ZM119.961 27.5H117.993V19.052H119.609V25.436H119.689L123.257 19.052H125.225V27.5H123.625V21.1H123.545L119.961 27.5ZM121.609 17.82C120.926 17.82 120.35 17.6333 119.881 17.26C119.422 16.876 119.15 16.3 119.065 15.532H120.489C120.542 15.884 120.665 16.156 120.857 16.348C121.049 16.5293 121.3 16.62 121.609 16.62C121.918 16.62 122.169 16.5293 122.361 16.348C122.564 16.156 122.686 15.884 122.729 15.532H124.169C124.073 16.3 123.796 16.876 123.337 17.26C122.878 17.6333 122.302 17.82 121.609 17.82ZM131.418 27.5H129.77V20.46H127.018V19.052H134.17V20.46H131.418V27.5ZM137.907 27.5H135.939V19.052H137.555V25.436H137.635L141.203 19.052H143.171V27.5H141.571V21.1H141.491L137.907 27.5ZM154.492 24.508C153.884 24.7213 153.265 24.828 152.636 24.828C151.655 24.828 150.881 24.5507 150.316 23.996C149.761 23.4413 149.484 22.668 149.484 21.676V19.052H151.132V21.676C151.132 22.8387 151.687 23.42 152.796 23.42C153.052 23.42 153.335 23.388 153.644 23.324C153.953 23.26 154.236 23.1747 154.492 23.068V19.052H156.14V27.5H154.492V24.508ZM165.765 23.036C165.765 23.1213 165.749 23.34 165.717 23.692H159.845C159.898 24.5453 160.122 25.2013 160.517 25.66C160.922 26.108 161.482 26.332 162.197 26.332C162.57 26.332 162.906 26.2627 163.205 26.124C163.504 25.9853 163.722 25.7773 163.861 25.5H165.557C165.322 26.204 164.906 26.748 164.309 27.132C163.712 27.516 162.981 27.708 162.117 27.708C161.328 27.708 160.634 27.5267 160.037 27.164C159.45 26.8013 158.997 26.2893 158.677 25.628C158.357 24.956 158.197 24.172 158.197 23.276C158.197 22.38 158.352 21.6013 158.661 20.94C158.97 20.268 159.408 19.7507 159.973 19.388C160.549 19.0253 161.221 18.844 161.989 18.844C162.746 18.844 163.408 19.0147 163.973 19.356C164.549 19.6973 164.992 20.188 165.301 20.828C165.61 21.4573 165.765 22.1933 165.765 23.036ZM161.989 20.188C161.402 20.188 160.928 20.3907 160.565 20.796C160.202 21.1907 159.973 21.7507 159.877 22.476H164.117C164.032 21.7507 163.802 21.1907 163.429 20.796C163.066 20.3907 162.586 20.188 161.989 20.188ZM171.689 18.844C172.404 18.844 173.028 19.0253 173.561 19.388C174.094 19.74 174.505 20.2467 174.793 20.908C175.081 21.5693 175.225 22.3373 175.225 23.212C175.225 24.0973 175.065 24.8813 174.745 25.564C174.436 26.236 173.998 26.764 173.433 27.148C172.868 27.5213 172.212 27.708 171.465 27.708C170.654 27.708 169.95 27.4573 169.353 26.956V30.7H167.705V19.052H169.001L169.177 19.884C169.934 19.1907 170.772 18.844 171.689 18.844ZM171.177 26.316C171.913 26.316 172.489 26.0387 172.905 25.484C173.321 24.9293 173.529 24.172 173.529 23.212C173.529 22.2947 173.332 21.5693 172.937 21.036C172.553 20.492 172.02 20.22 171.337 20.22C170.676 20.22 170.014 20.4867 169.353 21.02V25.644C169.897 26.092 170.505 26.316 171.177 26.316ZM184.383 23.036C184.383 23.1213 184.367 23.34 184.335 23.692H178.463C178.516 24.5453 178.74 25.2013 179.135 25.66C179.54 26.108 180.1 26.332 180.815 26.332C181.188 26.332 181.524 26.2627 181.823 26.124C182.121 25.9853 182.34 25.7773 182.479 25.5H184.175C183.94 26.204 183.524 26.748 182.927 27.132C182.329 27.516 181.599 27.708 180.735 27.708C179.945 27.708 179.252 27.5267 178.655 27.164C178.068 26.8013 177.615 26.2893 177.295 25.628C176.975 24.956 176.815 24.172 176.815 23.276C176.815 22.38 176.969 21.6013 177.279 20.94C177.588 20.268 178.025 19.7507 178.591 19.388C179.167 19.0253 179.839 18.844 180.607 18.844C181.364 18.844 182.025 19.0147 182.591 19.356C183.167 19.6973 183.609 20.188 183.919 20.828C184.228 21.4573 184.383 22.1933 184.383 23.036ZM180.607 20.188C180.02 20.188 179.545 20.3907 179.183 20.796C178.82 21.1907 178.591 21.7507 178.495 22.476H182.735C182.649 21.7507 182.42 21.1907 182.047 20.796C181.684 20.3907 181.204 20.188 180.607 20.188ZM188.979 27.708C188.072 27.708 187.309 27.4947 186.691 27.068C186.072 26.6413 185.699 26.076 185.571 25.372H187.251C187.347 25.692 187.544 25.932 187.843 26.092C188.152 26.252 188.52 26.332 188.947 26.332C189.459 26.332 189.869 26.22 190.179 25.996C190.488 25.772 190.643 25.4627 190.643 25.068C190.643 24.6947 190.509 24.4013 190.243 24.188C189.976 23.964 189.619 23.852 189.171 23.852H187.779V22.476H189.123C189.517 22.476 189.832 22.3747 190.067 22.172C190.312 21.9587 190.435 21.6867 190.435 21.356C190.435 20.9933 190.301 20.7107 190.035 20.508C189.768 20.3053 189.405 20.204 188.947 20.204C188.211 20.204 187.704 20.492 187.427 21.068H185.747C185.96 20.364 186.344 19.82 186.899 19.436C187.464 19.0413 188.163 18.844 188.995 18.844C189.592 18.844 190.125 18.9453 190.595 19.148C191.064 19.3507 191.427 19.6333 191.683 19.996C191.949 20.3587 192.083 20.7747 192.083 21.244C192.083 22.076 191.667 22.668 190.835 23.02V23.1C191.283 23.2493 191.635 23.5053 191.891 23.868C192.157 24.2307 192.291 24.6627 192.291 25.164C192.291 25.932 191.987 26.5507 191.379 27.02C190.771 27.4787 189.971 27.708 188.979 27.708ZM203.36 27.5H201.12L197.36 16.22H199.168L202.208 25.804H202.336L205.52 16.22H207.296L203.36 27.5ZM217.972 27.5H215.86L212.004 22.54H211.108V27.5H209.38V16.22H211.108V21.036H211.988L215.588 16.22H217.588L213.412 21.724L217.972 27.5ZM225.132 27.5H223.404V16.22H225.132V27.5ZM228.276 27.5V16.22H231.828C232.969 16.22 233.956 16.444 234.788 16.892C235.63 17.3293 236.276 17.9693 236.724 18.812C237.182 19.6547 237.412 20.6733 237.412 21.868C237.412 23.052 237.182 24.0653 236.724 24.908C236.276 25.7507 235.63 26.396 234.788 26.844C233.956 27.2813 232.969 27.5 231.828 27.5H228.276ZM231.828 25.996C233.022 25.996 233.956 25.644 234.628 24.94C235.3 24.2253 235.636 23.2013 235.636 21.868C235.636 20.524 235.3 19.5 234.628 18.796C233.966 18.0813 233.033 17.724 231.828 17.724H230.004V25.996H231.828Z" fill="white"/>
</svg>
